HIERARCHY
ROOT hip
{
  OFFSET 0 0 0
  CHANNELS 6 Xposition Yposition Zposition Zrotation Yrotation Xrotation
  JOINT abdomen
  {
    OFFSET 0 20.6881 -0.73152
    CHANNELS 3 Zrotation Xrotation Yrotation
    JOINT chest
    {
      OFFSET 0 11.7043 -0.48768
      CHANNELS 3 Zrotation Xrotation Yrotation
      JOINT neck
      {
        OFFSET 0 22.1894 -2.19456
        CHANNELS 3 Zrotation Xrotation Yrotation
        JOINT head
        {
          OFFSET -0.24384 7.07133 1.2192
          CHANNELS 3 Zrotation Xrotation Yrotation
          JOINT leftEye
          {
            OFFSET 4.14528 8.04674 8.04672
            CHANNELS 3 Zrotation Xrotation Yrotation
            End Site
            {
              OFFSET 1 0 0
            }
          }
          JOINT rightEye
          {
            OFFSET -3.6576 8.04674 8.04672
            CHANNELS 3 Zrotation Xrotation Yrotation
            End Site
            {
              OFFSET 1 0 0
            }
          }
        }
      }
      JOINT rCollar
      {
        OFFSET -2.68224 19.2634 -4.8768
        CHANNELS 3 Zrotation Xrotation Yrotation
        JOINT rShldr
        {
          OFFSET -8.77824 -1.95073 1.46304
          CHANNELS 3 Zrotation Xrotation Yrotation
          JOINT rForeArm
          {
            OFFSET -28.1742 -1.7115 0.48768
            CHANNELS 3 Zrotation Xrotation Yrotation
            JOINT rHand
            {
              OFFSET -22.5879 0.773209 7.07136
              CHANNELS 3 Zrotation Xrotation Yrotation
              JOINT rThumb1
              {
                OFFSET -1.2192 -0.487915 3.41376
                CHANNELS 3 Zrotation Xrotation Yrotation
                JOINT rThumb2
                {
                  OFFSET -3.37035 -0.52449 3.41376
                  CHANNELS 3 Zrotation Xrotation Yrotation
                  End Site
                  {
                    OFFSET -1.78271 -1.18214 1.43049
                  }
                }
              }
              JOINT rIndex1
              {
                OFFSET -7.75947 0.938293 5.60832
                CHANNELS 3 Zrotation Xrotation Yrotation
                JOINT rIndex2
                {
                  OFFSET -2.54057 -0.884171 1.56538
                  CHANNELS 3 Zrotation Xrotation Yrotation
                  End Site
                  {
                    OFFSET -1.62519 -0.234802 1.16502
                  }
                }
              }
              JOINT rMid1
              {
                OFFSET -8.24714 1.18213 3.41376
                CHANNELS 3 Zrotation Xrotation Yrotation
                JOINT rMid2
                {
                  OFFSET -3.10165 -0.590103 1.0647
                  CHANNELS 3 Zrotation Xrotation Yrotation
                  End Site
                  {
                    OFFSET -2.48547 -0.328903 0.83742
                  }
                }
              }
              JOINT rRing1
              {
                OFFSET -8.82822 0.546677 1.51678
                CHANNELS 3 Zrotation Xrotation Yrotation
                JOINT rRing2
                {
                  OFFSET -2.60934 -0.819778 -0.0198488
                  CHANNELS 3 Zrotation Xrotation Yrotation
                  End Site
                  {
                    OFFSET -2.33842 -0.294052 0.168128
                  }
                }
              }
              JOINT rPinky1
              {
                OFFSET -8.27202 -0.0477905 -0.4584
                CHANNELS 3 Zrotation Xrotation Yrotation
                JOINT rPinky2
                {
                  OFFSET -1.82734 -0.647385 -0.700984
                  CHANNELS 3 Zrotation Xrotation Yrotation
                  End Site
                  {
                    OFFSET -1.69225 -0.51767 -0.607171
                  }
                }
              }
            }
          }
        }
      }
      JOINT lCollar
      {
        OFFSET 2.68224 19.2634 -4.8768
        CHANNELS 3 Zrotation Xrotation Yrotation
        JOINT lShldr
        {
          OFFSET 8.77824 -1.95073 1.46304
          CHANNELS 3 Zrotation Xrotation Yrotation
          JOINT lForeArm
          {
            OFFSET 28.1742 -1.7115 0.48768
            CHANNELS 3 Zrotation Xrotation Yrotation
            JOINT lHand
            {
              OFFSET 22.5879 0.773209 7.07136
              CHANNELS 3 Zrotation Xrotation Yrotation
              JOINT lThumb1
              {
                OFFSET 1.2192 -0.487915 3.41376
                CHANNELS 3 Zrotation Xrotation Yrotation
                JOINT lThumb2
                {
                  OFFSET 3.37035 -0.52449 3.41376
                  CHANNELS 3 Zrotation Xrotation Yrotation
                  End Site
                  {
                    OFFSET 1.78271 -1.18214 1.43049
                  }
                }
              }
              JOINT lIndex1
              {
                OFFSET 7.75947 0.938293 5.60832
                CHANNELS 3 Zrotation Xrotation Yrotation
                JOINT lIndex2
                {
                  OFFSET 2.54057 -0.884171 1.56538
                  CHANNELS 3 Zrotation Xrotation Yrotation
                  End Site
                  {
                    OFFSET 1.62519 -0.234802 1.16502
                  }
                }
              }
              JOINT lMid1
              {
                OFFSET 8.24714 1.18213 3.41376
                CHANNELS 3 Zrotation Xrotation Yrotation
                JOINT lMid2
                {
                  OFFSET 3.10165 -0.590103 1.0647
                  CHANNELS 3 Zrotation Xrotation Yrotation
                  End Site
                  {
                    OFFSET 2.48547 -0.328903 0.83742
                  }
                }
              }
              JOINT lRing1
              {
                OFFSET 8.82822 0.546677 1.51678
                CHANNELS 3 Zrotation Xrotation Yrotation
                JOINT lRing2
                {
                  OFFSET 2.60934 -0.819778 -0.0198488
                  CHANNELS 3 Zrotation Xrotation Yrotation
                  End Site
                  {
                    OFFSET 2.33842 -0.294052 0.168128
                  }
                }
              }
              JOINT lPinky1
              {
                OFFSET 8.27202 -0.0477905 -0.4584
                CHANNELS 3 Zrotation Xrotation Yrotation
                JOINT lPinky2
                {
                  OFFSET 1.82734 -0.647385 -0.700984
                  CHANNELS 3 Zrotation Xrotation Yrotation
                  End Site
                  {
                    OFFSET 1.69225 -0.51767 -0.607171
                  }
                }
              }
            }
          }
        }
      }
    }
  }
  JOINT rButtock
  {
    OFFSET -8.77824 4.35084 1.2192
    CHANNELS 3 Zrotation Xrotation Yrotation
    JOINT rThigh
    {
      OFFSET 0 -1.70687 -2.19456
      CHANNELS 3 Zrotation Xrotation Yrotation
      JOINT rShin
      {
        OFFSET 0 -36.8199 0.73152
        CHANNELS 3 Zrotation Xrotation Yrotation
        JOINT rFoot
        {
          OFFSET 0.73152 -45.1104 -5.12064
          CHANNELS 3 Zrotation Xrotation Yrotation
          End Site
          {
            OFFSET -1.1221 -3.69964 12.103
          }
        }
      }
    }
  }
  JOINT lButtock
  {
    OFFSET 8.77824 4.35084 1.2192
    CHANNELS 3 Zrotation Xrotation Yrotation
    JOINT lThigh
    {
      OFFSET 0 -1.70687 -2.19456
      CHANNELS 3 Zrotation Xrotation Yrotation
      JOINT lShin
      {
        OFFSET 0 -36.8199 0.73152
        CHANNELS 3 Zrotation Xrotation Yrotation
        JOINT lFoot
        {
          OFFSET -0.73152 -45.1104 -5.12064
          CHANNELS 3 Zrotation Xrotation Yrotation
          End Site
          {
            OFFSET 1.1221 -3.69964 12.103
          }
        }
      }
    }
  }
}
MOTION
Frames:	5
Frame Time:	0.03333
-6.292130104149692 69.42720031738281 54.586300034075975 3.4151001647114754 25.89339941740036 2.3498000018298626 -10.026099979877472 11.07770025730133 2.448099944740534 2.641809917986393 -8.425609767436981 0.6152520189061761 -7.5945501029491425 16.38540029525757 -10.330599769949913 10.052500292658806 -23.863101303577423 -18.174099773168564 0.0 0.0 0.0 0.0 0.0 0.0 0.0 0.0 0.0 36.20840013027191 24.655999839305878 24.00540053844452 -26.00960075855255 -23.459300100803375 56.80550158023834 -0.04690759757068008 6.1670999228954315 0.8701289724558592 1.2137491012254031e-09 6.384652806445956e-09 -3.1872104955255054e-09 2.08409289825795e-09 1.0988969734171405e-08 -5.514948497875594e-09 1.2137491012254031e-09 6.384652806445956e-09 -3.1872104955255054e-09 7.7309102565050125 5.474880114197731 0.41731400415301323 1.2137491012254031e-09 6.384652806445956e-09 -3.1872104955255054e-09 2.905540131032467 0.9651830233633518 0.102901995414868 1.2137491012254031e-09 6.384652806445956e-09 -3.1872104955255054e-09 10.27859978377819 0.7318009994924068 0.025912300043273717 1.2137491012254031e-09 6.384652806445956e-09 -3.1872104955255054e-09 2.221670038998127 -0.733487019315362 -0.2089200052432716 0.0 0.0 0.0 -84.20080125331879 63.81060004234314 10.906299725174904 28.1441992521286 -39.57169979810715 -83.15759897232056 3.0211500450968742 -43.28070133924484 7.605409696698189 9.49640366343374e-10 8.410552254645154e-09 1.688249540165998e-10 1.6274981362585095e-09 1.4084093891142402e-08 3.2741809263825417e-10 9.49640366343374e-10 8.410552254645154e-09 1.688249540165998e-10 -7.7309102565050125 5.474880114197731 -0.41731400415301323 9.49640366343374e-10 8.410552254645154e-09 1.688249540165998e-10 -2.905540131032467 0.9651830233633518 -0.102901995414868 9.49640366343374e-10 8.410552254645154e-09 1.688249540165998e-10 -10.27859978377819 0.7318009994924068 -0.025912300043273717 9.49640366343374e-10 8.410552254645154e-09 1.688249540165998e-10 -2.221670038998127 -0.733487019315362 0.2089200052432716 0.0 0.0 0.0 -46.52580142021179 -56.86079800128937 -40.00980108976364 -1.985190063714981 69.51960146427155 2.4345299787819386 0.9539289772510529 -3.7272999063134193 10.83189994096756 0.0 0.0 0.0 11.521300077438354 9.02894988656044 4.457859881222248 -0.0016387899268011097 37.5928008556366 -2.1848999708890915 18.85839968919754 -18.529799580574036 37.080099284648895
-6.230330104823224 69.28450012207031 54.661100033670664 3.4490998461842537 25.72560042142868 2.31460003182292 -10.072199776768684 11.092899665236473 2.47571999207139 2.6581499353051186 -8.43769982457161 0.6228080112487078 -7.576779797673225 16.366899758577347 -10.347800105810165 10.057100281119347 -23.731901049613953 -18.211500495672226 0.0 0.0 0.0 0.0 0.0 0.0 0.0 0.0 0.0 36.04189932346344 24.813601076602936 23.967900574207306 -25.999400317668915 -23.433199524879456 56.76340162754059 -0.045852300245314837 6.1013998836278915 0.8607819769531488 1.4382095514520188e-09 7.8580342233181e-09 -4.834532774111722e-09 2.4652280217196676e-09 1.3505996321327984e-08 -8.369624993065372e-09 1.4382095514520188e-09 7.8580342233181e-09 -4.834532774111722e-09 7.7309102565050125 5.474880114197731 0.41731400415301323 1.4382095514520188e-09 7.8580342233181e-09 -4.834532774111722e-09 2.905540131032467 0.9651830233633518 0.102901995414868 1.4382095514520188e-09 7.8580342233181e-09 -4.834532774111722e-09 10.27859978377819 0.7318009994924068 0.025912300043273717 1.4382095514520188e-09 7.8580342233181e-09 -4.834532774111722e-09 2.221670038998127 -0.733487019315362 -0.2089200052432716 0.0 0.0 0.0 -83.62390100955963 64.0943992137909 10.304200127720833 28.14820110797882 -39.54559922218323 -83.11120212078094 2.9772399365901947 -43.0402010679245 7.541270032525063 6.989608891672106e-10 8.85563622432528e-09 -1.944044925039634e-10 1.2041567742926418e-09 1.4979377738200128e-08 -3.069544618483633e-10 6.989608891672106e-10 8.85563622432528e-09 -1.944044925039634e-10 -7.7309102565050125 5.474880114197731 -0.41731400415301323 6.989608891672106e-10 8.85563622432528e-09 -1.944044925039634e-10 -2.905540131032467 0.9651830233633518 -0.102901995414868 6.989608891672106e-10 8.85563622432528e-09 -1.944044925039634e-10 -10.27859978377819 0.7318009994924068 -0.025912300043273717 6.989608891672106e-10 8.85563622432528e-09 -1.944044925039634e-10 -2.221670038998127 -0.733487019315362 0.2089200052432716 0.0 0.0 0.0 -47.18710005283356 -56.81300103664398 -40.79069942235947 -2.0285499840974808 69.85239923000336 2.4924199283123016 1.0692799743264914 -3.8028500229120255 11.23319998383522 0.0 0.0 0.0 11.537500619888306 9.20758031308651 4.6014100313186646 -0.0021295700025802944 37.637298703193665 -2.194870077073574 18.989099711179733 -18.6866994202137 37.12469905614853
-6.195330104674213 69.14800262451172 54.72490003332496 3.5663998872041702 25.612800121307373 2.301299963146448 -10.289700105786324 11.127999722957611 2.5173399969935417 2.77339993044734 -8.462549820542336 0.6362139852717519 -7.640269696712494 16.305600553750992 -10.336200222373009 10.153700038790703 -23.50649893283844 -18.17460000514984 0.0 0.0 0.0 0.0 0.0 0.0 0.0 0.0 0.0 35.904100835323334 24.910699725151062 23.91660064458847 -25.989899933338165 -23.408799469470978 56.72389805316925 -0.04218699876219034 5.853569805622101 0.825567003339529 -2.014388655879884e-10 5.678657544194721e-10 -2.8904878490720876e-09 -3.6003200420964276e-10 9.36211108637508e-10 -4.998241820430849e-09 -2.014388655879884e-10 5.678657544194721e-10 -2.8904878490720876e-09 7.7309102565050125 5.474880114197731 0.41731400415301323 -2.014388655879884e-10 5.678657544194721e-10 -2.8904878490720876e-09 2.905540131032467 0.9651830233633518 0.102901995414868 -2.014388655879884e-10 5.678657544194721e-10 -2.8904878490720876e-09 10.27859978377819 0.7318009994924068 0.025912300043273717 -2.014388655879884e-10 5.678657544194721e-10 -2.8904878490720876e-09 2.221670038998127 -0.733487019315362 -0.2089200052432716 0.0 0.0 0.0 -83.09349954128265 64.35399949550629 9.734570011496544 28.15119981765747 -39.52530026435852 -83.07529807090759 2.9308300092816353 -42.78219938278198 7.473109737038612 1.234212732015294e-10 5.8474824982113205e-09 -6.036771083017811e-10 2.3085533484845655e-10 1.0211351764155552e-08 -1.028297447192017e-09 1.234212732015294e-10 5.8474824982113205e-09 -6.036771083017811e-10 -7.7309102565050125 5.474880114197731 -0.41731400415301323 1.234212732015294e-10 5.8474824982113205e-09 -6.036771083017811e-10 -2.905540131032467 0.9651830233633518 -0.102901995414868 1.234212732015294e-10 5.8474824982113205e-09 -6.036771083017811e-10 -10.27859978377819 0.7318009994924068 -0.025912300043273717 1.234212732015294e-10 5.8474824982113205e-09 -6.036771083017811e-10 -2.221670038998127 -0.733487019315362 0.2089200052432716 0.0 0.0 0.0 -47.92460024356842 -56.78549766540527 -41.493199467659 -2.0762399956583977 70.20110249519348 2.5535300374031067 1.1707399785518646 -3.8657300546765327 11.586599797010422 0.0 0.0 0.0 11.456000357866287 9.353749975562096 4.738430008292198 -0.0019010699907084927 37.700301110744476 -2.2018200159072876 19.017000049352646 -18.69330033659935 37.161399722099304
-6.193730104714632 69.01249694824219 54.79160002991557 3.6511000245809555 25.54709941148758 2.2823000326752663 -10.417699813842773 11.152999922633171 2.572579924017191 2.875960059463978 -8.465960249304771 0.655687996186316 -7.657869681715965 16.28230020403862 -10.338999778032303 10.203599855303764 -23.392700850963593 -18.173799365758896 0.0 0.0 0.0 0.0 0.0 0.0 0.0 0.0 0.0 35.834400951862335 24.954001307487488 23.834600150585175 -25.994599163532257 -23.421000838279724 56.74339771270752 -0.039200400933623314 5.641679987311363 0.7954850234091282 -1.1568346280910191e-09 -3.9187852962641045e-09 -1.1050360626541078e-09 -2.0028778635605704e-09 -6.788809514546301e-09 -1.908233571157325e-09 -1.1568346280910191e-09 -3.9187852962641045e-09 -1.1050360626541078e-09 7.7309102565050125 5.474880114197731 0.41731400415301323 -1.1568346280910191e-09 -3.9187852962641045e-09 -1.1050360626541078e-09 2.905540131032467 0.9651830233633518 0.102901995414868 -1.1568346280910191e-09 -3.9187852962641045e-09 -1.1050360626541078e-09 10.27859978377819 0.7318009994924068 0.025912300043273717 -1.1568346280910191e-09 -3.9187852962641045e-09 -1.1050360626541078e-09 2.221670038998127 -0.733487019315362 -0.2089200052432716 0.0 0.0 0.0 -82.59000062942505 64.57389771938324 9.20481026172638 28.154799342155457 -39.50150102376938 -83.03289771080017 2.916499972343445 -42.70149976015091 7.451949790120125 -1.4708234630234074e-10 3.4430058803991415e-09 -6.752998160663992e-10 -2.2893686946190428e-10 6.261871021706611e-09 -1.1664269550237805e-09 -1.4708234630234074e-10 3.4430058803991415e-09 -6.752998160663992e-10 -7.7309102565050125 5.474880114197731 -0.41731400415301323 -1.4708234630234074e-10 3.4430058803991415e-09 -6.752998160663992e-10 -2.905540131032467 0.9651830233633518 -0.102901995414868 -1.4708234630234074e-10 3.4430058803991415e-09 -6.752998160663992e-10 -10.27859978377819 0.7318009994924068 -0.025912300043273717 -1.4708234630234074e-10 3.4430058803991415e-09 -6.752998160663992e-10 -2.221670038998127 -0.733487019315362 0.2089200052432716 0.0 0.0 0.0 -48.36240112781525 -56.84010207653046 -41.93810015916824 -2.121900077909231 70.51310241222382 2.607219982892275 1.2441900093108416 -3.9208300039172173 11.821200549602509 0.0 0.0 0.0 11.46259993314743 9.44167010486126 4.91016011685133 -9.350139862362994e-05 37.85820007324219 -2.211619969457388 19.100899547338486 -18.753800243139267 37.211101055145264
-6.186130104586482 68.89550018310547 54.859400030225515 3.542100079357624 25.44150084257126 2.1703000366687775 -10.456100329756737 11.168000176548958 2.6414399407804012 2.965810038149357 -8.44792976975441 0.6812279904261231 -7.6295797526836395 16.29689946770668 -10.35649985074997 10.207000225782394 -23.390699923038483 -18.208700269460678 0.0 0.0 0.0 0.0 0.0 0.0 0.0 0.0 0.0 35.83260118961334 24.943401217460632 23.721799850463867 -26.013599932193756 -23.469699025154114 56.82220101356506 -0.036778599314857274 5.465720035135746 0.7705180160701275 -1.4273382475948893e-09 -5.596803021035157e-09 5.167066774447449e-10 -2.4645885332574835e-09 -9.66394964052597e-09 9.00399754755199e-10 -1.4273382475948893e-09 -5.596803021035157e-09 5.167066774447449e-10 7.7309102565050125 5.474880114197731 0.41731400415301323 -1.4273382475948893e-09 -5.596803021035157e-09 5.167066774447449e-10 2.905540131032467 0.9651830233633518 0.102901995414868 -1.4273382475948893e-09 -5.596803021035157e-09 5.167066774447449e-10 10.27859978377819 0.7318009994924068 0.025912300043273717 -1.4273382475948893e-09 -5.596803021035157e-09 5.167066774447449e-10 2.221670038998127 -0.733487019315362 -0.2089200052432716 0.0 0.0 0.0 -82.11690187454224 64.75459814071655 8.718120083212852 28.158900439739227 -39.474000334739685 -82.98419952392578 2.933710031211376 -42.798099517822266 7.47732013463974 -1.1191048088221578e-10 1.652438186283689e-09 -4.1438852349529043e-10 -1.752198386384407e-10 3.1258196031558327e-09 -7.213429853436537e-10 -1.1191048088221578e-10 1.652438186283689e-09 -4.1438852349529043e-10 -7.7309102565050125 5.474880114197731 -0.41731400415301323 -1.1191048088221578e-10 1.652438186283689e-09 -4.1438852349529043e-10 -2.905540131032467 0.9651830233633518 -0.102901995414868 -1.1191048088221578e-10 1.652438186283689e-09 -4.1438852349529043e-10 -10.27859978377819 0.7318009994924068 -0.025912300043273717 -1.1191048088221578e-10 1.652438186283689e-09 -4.1438852349529043e-10 -2.221670038998127 -0.733487019315362 0.2089200052432716 0.0 0.0 0.0 -48.502299785614014 -56.980199217796326 -42.12790131568909 -2.164819948375225 70.78859746456146 2.6528399996459484 1.2891600094735622 -3.968360088765621 11.937100142240524 0.0 0.0 0.0 11.557500511407852 9.471340030431747 5.116509832441807 0.0033846501537482254 38.11079978942871 -2.2243700176477432 19.24090012907982 -18.86790007352829 37.27380037307739
